<svg width="12" height="22" viewBox="0 0 12 22" fill="none" xmlns="http://www.w3.org/2000/svg">
<path d="M3.808 1.104L3.968 0.24H11.68L11.52 1.104L9.728 1.264C9.51467 1.28533 9.35467 1.328 9.248 1.392C9.14133 1.456 9.056 1.59467 8.992 1.808C8.928 2 8.85333 2.34133 8.768 2.832L5.824 19.408C5.696 20.1547 5.65333 20.592 5.696 20.72C5.73867 20.848 5.93067 20.9333 6.272 20.976L8 21.168L7.84 22H0.128L0.288 21.168L2.08 20.976C2.31467 20.9547 2.47467 20.9227 2.56 20.88C2.66667 20.816 2.752 20.688 2.816 20.496C2.88 20.2827 2.95467 19.92 3.04 19.408L5.984 2.832C6.112 2.08533 6.15467 1.648 6.112 1.52C6.06933 1.392 5.87733 1.30667 5.536 1.264L3.808 1.104Z" fill="black"/>
</svg>
